<mxfile host="65bd71144e">
    <diagram id="E5AFFscP0L8HL54tfq2d" name="Page-1">
        <mxGraphModel dx="446" dy="439" grid="1" gridSize="10" guides="1" tooltips="1" connect="1" arrows="1" fold="1" page="1" pageScale="1" pageWidth="850" pageHeight="1100" math="0" shadow="0">
            <root>
                <mxCell id="0"/>
                <mxCell id="1" parent="0"/>
                <mxCell id="2" value="Server" style="rounded=0;whiteSpace=wrap;html=1;" vertex="1" parent="1">
                    <mxGeometry x="160" y="40" width="120" height="60" as="geometry"/>
                </mxCell>
                <mxCell id="3" value="Data base 1" style="shape=parallelogram;perimeter=parallelogramPerimeter;whiteSpace=wrap;html=1;fixedSize=1;strokeColor=#F0CDBE;" vertex="1" parent="1">
                    <mxGeometry x="20" y="120" width="120" height="60" as="geometry"/>
                </mxCell>
                <mxCell id="4" value="Data base 2" style="shape=parallelogram;perimeter=parallelogramPerimeter;whiteSpace=wrap;html=1;fixedSize=1;" vertex="1" parent="1">
                    <mxGeometry x="300" y="120" width="120" height="60" as="geometry"/>
                </mxCell>
                <mxCell id="5" value="" style="shape=flexArrow;endArrow=classic;startArrow=classic;html=1;width=18;endSize=9.72;endWidth=10;startWidth=0;startSize=6.3;fillColor=#d80073;strokeColor=#A50040;" edge="1" parent="1">
                    <mxGeometry width="100" height="100" relative="1" as="geometry">
                        <mxPoint x="80" y="120" as="sourcePoint"/>
                        <mxPoint x="150" y="50" as="targetPoint"/>
                        <Array as="points"/>
                    </mxGeometry>
                </mxCell>
                <mxCell id="6" value="" style="shape=flexArrow;endArrow=classic;startArrow=classic;html=1;startWidth=29;startSize=3.32;" edge="1" parent="1">
                    <mxGeometry width="100" height="100" relative="1" as="geometry">
                        <mxPoint x="290" y="80" as="sourcePoint"/>
                        <mxPoint x="355" y="110" as="targetPoint"/>
                        <Array as="points">
                            <mxPoint x="325" y="90"/>
                        </Array>
                    </mxGeometry>
                </mxCell>
                <mxCell id="7" value="" style="endArrow=none;dashed=1;html=1;dashPattern=1 3;strokeWidth=2;exitX=0.414;exitY=1.035;exitDx=0;exitDy=0;exitPerimeter=0;" edge="1" parent="1" source="4" target="13">
                    <mxGeometry width="50" height="50" relative="1" as="geometry">
                        <mxPoint x="350" y="250" as="sourcePoint"/>
                        <mxPoint x="350" y="190" as="targetPoint"/>
                    </mxGeometry>
                </mxCell>
                <mxCell id="8" value="" style="endArrow=none;dashed=1;html=1;dashPattern=1 3;strokeWidth=2;" edge="1" parent="1">
                    <mxGeometry width="50" height="50" relative="1" as="geometry">
                        <mxPoint x="90" y="280" as="sourcePoint"/>
                        <mxPoint x="90" y="180" as="targetPoint"/>
                    </mxGeometry>
                </mxCell>
                <mxCell id="10" value="Actor" style="shape=umlActor;verticalLabelPosition=bottom;verticalAlign=top;html=1;outlineConnect=0;" vertex="1" parent="1">
                    <mxGeometry x="205" y="230" width="30" height="60" as="geometry"/>
                </mxCell>
                <mxCell id="12" value="DB 3" style="shape=cylinder3;whiteSpace=wrap;html=1;boundedLbl=1;backgroundOutline=1;size=15;strokeColor=#F0CDBE;" vertex="1" parent="1">
                    <mxGeometry x="60" y="290" width="60" height="80" as="geometry"/>
                </mxCell>
                <mxCell id="13" value="List" style="swimlane;fontStyle=0;childLayout=stackLayout;horizontal=1;startSize=30;horizontalStack=0;resizeParent=1;resizeParentMax=0;resizeLast=0;collapsible=1;marginBottom=0;whiteSpace=wrap;html=1;strokeColor=#F0CDBE;" vertex="1" parent="1">
                    <mxGeometry x="280" y="270" width="140" height="120" as="geometry"/>
                </mxCell>
                <mxCell id="14" value="&lt;b style=&quot;background-color: rgb(255, 255, 0);&quot;&gt;&lt;font color=&quot;#eb1414&quot;&gt;Draft Surveey&lt;span style=&quot;white-space: pre;&quot;&gt;&#9;&lt;/span&gt;&lt;span style=&quot;white-space: pre;&quot;&gt;&#9;&lt;/span&gt;&lt;/font&gt;&lt;/b&gt;" style="text;strokeColor=none;fillColor=none;align=center;verticalAlign=middle;spacingLeft=4;spacingRight=4;overflow=hidden;points=[[0,0.5],[1,0.5]];portConstraint=eastwest;rotatable=0;whiteSpace=wrap;html=1;" vertex="1" parent="13">
                    <mxGeometry y="30" width="140" height="30" as="geometry"/>
                </mxCell>
                <mxCell id="15" value="&lt;font color=&quot;#0000cc&quot;&gt;&lt;i&gt;Pointage sous palon&lt;/i&gt;&lt;/font&gt;" style="text;strokeColor=none;fillColor=none;align=center;verticalAlign=middle;spacingLeft=4;spacingRight=4;overflow=hidden;points=[[0,0.5],[1,0.5]];portConstraint=eastwest;rotatable=0;whiteSpace=wrap;html=1;" vertex="1" parent="13">
                    <mxGeometry y="60" width="140" height="30" as="geometry"/>
                </mxCell>
                <mxCell id="16" value="On / off Hire" style="text;strokeColor=none;fillColor=none;align=center;verticalAlign=middle;spacingLeft=4;spacingRight=4;overflow=hidden;points=[[0,0.5],[1,0.5]];portConstraint=eastwest;rotatable=0;whiteSpace=wrap;html=1;" vertex="1" parent="13">
                    <mxGeometry y="90" width="140" height="30" as="geometry"/>
                </mxCell>
                <mxCell id="17" value="" style="endArrow=classic;html=1;fontColor=#0000CC;entryX=-0.015;entryY=0.261;entryDx=0;entryDy=0;entryPerimeter=0;" edge="1" parent="1">
                    <mxGeometry relative="1" as="geometry">
                        <mxPoint x="122" y="340" as="sourcePoint"/>
                        <mxPoint x="279.9" y="337.83000000000004" as="targetPoint"/>
                    </mxGeometry>
                </mxCell>
                <mxCell id="18" value="Label" style="edgeLabel;resizable=0;html=1;align=center;verticalAlign=middle;labelBackgroundColor=#FFFF00;strokeColor=#F0CDBE;fontColor=#0000CC;" connectable="0" vertex="1" parent="17">
                    <mxGeometry relative="1" as="geometry"/>
                </mxCell>
            </root>
        </mxGraphModel>
    </diagram>
</mxfile>